<?xml version="1.0" standalone="no"?>
<!DOCTYPE svg PUBLIC "-//W3C//DTD SVG 20010904//EN"
 "http://www.w3.org/TR/2001/REC-SVG-20010904/DTD/svg10.dtd">
<svg version="1.0" xmlns="http://www.w3.org/2000/svg"
 width="1000.000000pt" height="1000.000000pt" viewBox="0 0 1000.000000 1000.000000"
 preserveAspectRatio="xMidYMid meet">
<metadata>
Created by potrace 1.14, written by Peter Selinger 2001-2017
</metadata>
<g transform="translate(0.000000,1000.000000) scale(0.100000,-0.100000)"
fill="#000000" stroke="none">
<path d="M5338 6778 c-30 -35 -73 -84 -94 -109 -53 -63 -420 -511 -463 -565
-22 -28 -30 -31 -85 -33 -70 -2 -120 -9 -150 -21 -42 -15 -128 -92 -303 -270
-98 -100 -291 -296 -430 -437 l-252 -255 -33 23 c-18 13 -44 33 -58 45 -14 12
-68 57 -120 100 -52 43 -97 81 -100 84 -7 8 -375 316 -424 355 -20 17 -43 35
-49 40 -7 6 -28 23 -48 38 l-36 27 -119 -121 c-165 -169 -297 -308 -432 -457
-58 -63 -271 -291 -317 -339 l-50 -51 -170 -7 c-177 -6 -210 -9 -317 -24 -70
-10 -68 -8 -209 -166 -24 -27 -62 -68 -84 -91 -22 -23 -55 -59 -74 -80 -40
-45 -199 -221 -252 -279 -21 -22 -50 -54 -66 -71 -15 -17 -53 -58 -83 -91 -78
-84 -222 -242 -240 -263 -8 -10 -52 -57 -96 -106 -165 -180 -221 -257 -122
-169 18 17 69 62 113 100 85 75 124 110 220 196 33 30 78 70 99 89 52 46 141
125 252 226 49 44 116 105 149 134 33 30 65 59 71 64 16 16 173 157 197 179
21 18 86 77 155 141 l32 30 273 1 273 0 140 145 c78 80 167 172 198 205 288
299 480 495 485 495 4 0 56 -47 116 -104 61 -57 136 -128 167 -158 l57 -53
-54 -130 c-48 -112 -72 -179 -75 -207 -1 -4 -6 -22 -11 -40 -15 -54 -36 -201
-54 -380 -3 -27 -7 -69 -10 -95 -2 -27 -7 -81 -10 -122 l-6 -74 43 38 c83 75
100 90 122 110 12 11 61 56 110 100 49 44 102 92 117 106 65 59 99 89 199 179
58 52 110 99 116 105 30 28 182 166 200 182 25 21 208 189 239 218 12 11 62
56 110 100 49 44 96 87 105 95 9 8 56 51 104 95 49 44 98 89 110 100 12 11 62
56 111 100 48 44 93 85 99 90 6 6 90 82 186 170 96 87 197 180 223 205 26 25
52 46 57 48 15 5 138 -150 188 -239 28 -48 73 -146 101 -219 l50 -133 -129
-131 c-174 -176 -191 -196 -265 -306 -67 -100 -305 -565 -305 -596 0 -7 54 20
127 63 39 24 74 43 77 43 4 0 23 11 44 23 20 13 108 60 194 105 l157 81 843
-421 c464 -231 848 -421 854 -421 5 0 41 15 80 33 38 18 107 51 154 73 47 21
128 60 180 84 124 59 201 93 210 93 4 0 214 -102 466 -226 1330 -656 1828
-900 1879 -921 18 -8 -201 179 -349 297 -10 8 -38 31 -61 50 -23 19 -51 42
-61 50 -36 29 -329 266 -569 460 -131 106 -320 259 -420 339 -99 80 -187 151
-195 158 -8 7 -127 103 -265 213 -137 111 -261 211 -275 224 -14 12 -41 34
-61 49 l-35 26 -115 -125 c-62 -69 -131 -144 -152 -167 l-37 -42 -68 70 c-37
39 -113 120 -169 180 -108 118 -108 118 -254 276 -53 57 -109 118 -124 134
-15 17 -64 70 -109 119 -44 49 -88 97 -97 107 -9 11 -58 64 -109 119 -51 55
-101 110 -112 123 -11 12 -59 65 -108 117 -48 52 -106 115 -128 140 -22 25
-55 61 -73 81 -42 44 -223 240 -263 283 -144 157 -383 406 -389 406 -2 0 -29
-28 -59 -62z"/>
</g>
</svg>
